<svg width="32" height="32" viewBox="0 0 32 32" fill="none" xmlns="http://www.w3.org/2000/svg">
  <defs>
    <linearGradient id="logo-gradient" x1="0%" y1="0%" x2="100%" y2="100%">
      <stop offset="0%" stop-color="#8B5CF6" />
      <stop offset="100%" stop-color="#D946EF" />
    </linearGradient>
  </defs>
  <!-- Background Shape -->
  <path d="M4 8C4 5.79086 5.79086 4 8 4H24C26.2091 4 28 5.79086 28 8V24C28 26.2091 26.2091 28 24 28H8C5.79086 28 4 26.2091 4 24V8Z" fill="url(#logo-gradient)" />
  <!-- "R" Route Icon -->
  <path d="M11 10H17C19.2091 10 21 11.7909 21 14C21 16.2091 19.2091 18 17 18H11V22M11 18H15L19 22" stroke="white" stroke-width="2.5" stroke-linecap="round" stroke-linejoin="round" />
  <!-- Reactive Dot -->
  <circle cx="21" cy="22" r="2" fill="white" />
</svg>